{"title":"Standing.Up.2013.DVDRip.XviD-EXViD","uid":8398454,"size":735639408,"categoryP":"video","categoryS":"movies","magnet":"?xt=urn:btih:79654e41b4583d5337d0cee61e8fbfec0ddc5b02&amp;dn=Standing.Up.2013.DVDRip.XviD-EXViD&amp;tr=udp%3A%2F%2Ftracker.openbittorrent.com%3A80&amp;tr=udp%3A%2F%2Fopen.demonii.com%3A1337&amp;tr=udp%3A%2F%2Ftracker.coppersurfer.tk%3A6969&amp;tr=udp%3A%2F%2Fexodus.desync.com%3A6969","seeders":14,"leechers":0,"uploader":"xxxlavalxxx","files":-1,"time":1366590916,"description":"Standing.Up.2013.DVDRip.XviD-EXViD\n\n EXViD aims to iNTERNAL those releases which have been lost in the archives\n EXViD aims to PRE non-internal releases which have poor sources and are likely skipped by others\n &lt;a href=&quot;\nhttp://www.imdb.com/title/tt1905042/&quot; rel=&quot;nofollow&quot; target=&quot;_NEW&quot;&gt;\nhttp://www.imdb.com/title/tt1905042/&lt;/a&gt;\n Subtitles: NL\n Date: 2013.04\n Director: D.J. Caruso\n\n Genres: Family\n\n Plot:\n Based on one of the most beloved Young Adult novels of all time: Two kids are stripped naked\n and left together on an island in a lake - victims of a vicious summer camp prank; But rather\n than have to return to camp and face the humiliation, they decide to take off, on the run\n together. What follows is a three day odyssey of discovery and self-discovery\n\n Cast:\n Chandler Canterbury ... Howie\n Annalise Basso ... Grace\n Radha Mitchell ... Meg\n Val Kilmer ... Hofstadder\n Keith Flippen ... Mr. Russell\n William J. Harrison ... Bryce\n Jared Kemmerling ... Murphy\n Kate Maberly ... Margo Cutter\n Blake Cooper Griffin ... Eric (as Blake Griffin)\n Charles Carroll ... Mr. Carlson\n Katie Kneeland ... Sara Gallagher\n Frank Hoyt Taylor ... Lockwood\n Alexus Lapri Geier ... Tiwana\n Deidra Shores ... Lydia\n Adrian Kali Turner ... Calvin\n\n Stats:\n Format: AVI\n Format/Info: Audio Video Interleave\n File size: 701 MiB\n Duration: 1h 29mn\n Overall bit rate: 1 097 Kbps\n Writing application: VirtualDubMod 1.5.10.2 (build 2540/release)\n Writing library: VirtualDubMod build 2540/release\n\n Video\n ID: 0\n Format: MPEG-4 Visual\n Format profile: Advanced Simple@L5\n Format settings, BVOP: Yes\n Format settings, QPel: No\n Format settings, GMC: No warppoints\n Format settings, Matrix: Default (H.263)\n Muxing mode: Packed bitstream\n Codec ID: XVID\n Codec ID/Hint: XviD\n Duration: 1h 29mn\n Bit rate: 903 Kbps\n Width: 624 pixels\n Height: 256 pixels\n Display aspect ratio: 2.40:1\n Frame rate: 25.000 fps\n Color space: YUV\n Chroma subsampling: 4:2:0\n Bit depth: 8 bits\n Scan type: Progressive\n Bits/(Pixel*Frame): 0.226\n Stream size: 577 MiB (82%)\n Writing library: XviD 64\n\n Audio\n ID: 1\n Format: MPEG Audio\n Format version: Version 1\n Format profile: Layer 3\n Mode: Joint stereo\n Mode extension: MS Stereo\n Codec ID: 55\n Codec ID/Hint: MP3\n Duration: 1h 29mn\n Bit rate mode: Variable\n Bit rate: 182 Kbps\n Minimum bit rate: 192 Kbps\n Channel(s): 2 channels\n Sampling rate: 48.0 KHz\n Stream size: 116 MiB (17%)\n Alignment: Aligned on interleaves\n Interleave, duration: 24 ms (0.60 video frame)\n Interleave, preload duration: 101 ms\n Writing library: LAME4.0a\n Encoding settings: -m j -V 4 -q 5 -lowpass 19.5 --vbr-old -b 192\n\n\n\n\n    &lt;a href=&quot;\thttp://www.shotpix.com/images/36422803062701099924.png&quot; rel=&quot;nofollow&quot; target=&quot;_NEW&quot;&gt;\thttp://www.shotpix.com/images/36422803062701099924.png&lt;/a&gt;\n    &lt;a href=&quot;\thttp://www.shotpix.com/images/62823860335653201371.png&quot; rel=&quot;nofollow&quot; target=&quot;_NEW&quot;&gt;\thttp://www.shotpix.com/images/62823860335653201371.png&lt;/a&gt;\n    &lt;a href=&quot;\thttp://www.shotpix.com/images/67071979959585418456.png&quot; rel=&quot;nofollow&quot; target=&quot;_NEW&quot;&gt;\thttp://www.shotpix.com/images/67071979959585418456.png&lt;/a&gt;\n    &lt;a href=&quot;\thttp://www.shotpix.com/images/46803201731776584928.png&quot; rel=&quot;nofollow&quot; target=&quot;_NEW&quot;&gt;\thttp://www.shotpix.com/images/46803201731776584928.png&lt;/a&gt;","torrent":{"xt":"urn:btih:79654e41b4583d5337d0cee61e8fbfec0ddc5b02","amp;dn":"Standing.Up.2013.DVDRip.XviD-EXViD","amp;tr":["udp%3A%2F%2Ftracker.openbittorrent.com%3A80","udp%3A%2F%2Fopen.demonii.com%3A1337","udp%3A%2F%2Ftracker.coppersurfer.tk%3A6969","udp%3A%2F%2Fexodus.desync.com%3A6969"],"infoHash":"79654e41b4583d5337d0cee61e8fbfec0ddc5b02","infoHashBuffer":{"type":"Buffer","data":[121,101,78,65,180,88,61,83,55,208,206,230,30,143,191,236,13,220,91,2]},"announce":[],"urlList":[]}}